<svg width="10" height="14" viewBox="0 0 10 14" fill="none" xmlns="http://www.w3.org/2000/svg">
<path d="M8.8335 0.599976H1.8335C1.56828 0.599976 1.31393 0.705332 1.12639 0.892869C0.938853 1.08041 0.833496 1.33476 0.833496 1.59998V12.6C0.83354 12.6892 0.857463 12.7768 0.902782 12.8537C0.948101 12.9305 1.01316 12.9939 1.09122 13.0371C1.16928 13.0803 1.25748 13.1019 1.34668 13.0996C1.43588 13.0972 1.52283 13.071 1.5985 13.0237L5.3335 10.6894L9.06912 13.0237C9.14478 13.0709 9.23166 13.0969 9.32076 13.0992C9.40987 13.1014 9.49796 13.0799 9.57592 13.0366C9.65388 12.9934 9.71887 12.9301 9.76416 12.8534C9.80944 12.7766 9.83338 12.6891 9.8335 12.6V1.59998C9.8335 1.33476 9.72814 1.08041 9.5406 0.892869C9.35307 0.705332 9.09871 0.599976 8.8335 0.599976Z" fill="black"/>
</svg>
