<svg width="60" height="60" viewBox="0 0 60 60" fill="none" xmlns="http://www.w3.org/2000/svg">
<path d="M39.3024 30.7442C39.7134 30.0249 39.4635 29.1087 38.7442 28.6976C38.0249 28.2866 37.1087 28.5365 36.6976 29.2558L39.3024 30.7442ZM30 44L28.6976 44.7442C28.9647 45.2116 29.4617 45.5 30 45.5C30.5383 45.5 31.0353 45.2116 31.3024 44.7442L30 44ZM23.3024 29.2558C22.8913 28.5365 21.9751 28.2866 21.2558 28.6976C20.5365 29.1087 20.2866 30.0249 20.6976 30.7442L23.3024 29.2558ZM30 16V14.5V16ZM39 26H37.5C37.5 26.8284 38.1716 27.5 39 27.5V26ZM21 26V27.5C21.8284 27.5 22.5 26.8284 22.5 26H21ZM31.0552 40.6193C31.4662 41.3385 32.3825 41.5884 33.1018 41.1773C33.821 40.7663 34.0709 39.85 33.6598 39.1307L31.0552 40.6193ZM28.0161 29.2557C27.605 28.5365 26.6887 28.2866 25.9695 28.6977C25.2502 29.1087 25.0004 30.025 25.4114 30.7443L28.0161 29.2557ZM33.4113 36.4941C33.8223 37.2134 34.7385 37.4634 35.4578 37.0524C36.1772 36.6415 36.4271 35.7252 36.0162 35.0059L33.4113 36.4941ZM32.7312 29.2559C32.3202 28.5366 31.404 28.2866 30.6847 28.6976C29.9653 29.1085 29.7154 30.0248 30.1263 30.7441L32.7312 29.2559ZM56.5 30C56.5 44.6355 44.6355 56.5 30 56.5V59.5C46.2924 59.5 59.5 46.2924 59.5 30H56.5ZM30 56.5C15.3645 56.5 3.5 44.6355 3.5 30H0.5C0.5 46.2924 13.7076 59.5 30 59.5V56.5ZM3.5 30C3.5 15.3645 15.3645 3.5 30 3.5V0.5C13.7076 0.5 0.5 13.7076 0.5 30H3.5ZM30 3.5C44.6355 3.5 56.5 15.3645 56.5 30H59.5C59.5 13.7076 46.2924 0.5 30 0.5V3.5ZM36.6976 29.2558L28.6976 43.2558L31.3024 44.7442L39.3024 30.7442L36.6976 29.2558ZM31.3024 43.2558L23.3024 29.2558L20.6976 30.7442L28.6976 44.7442L31.3024 43.2558ZM22.5 25C22.5 23.0109 23.2902 21.1032 24.6967 19.6967L22.5754 17.5754C20.6062 19.5445 19.5 22.2152 19.5 25H22.5ZM24.6967 19.6967C26.1032 18.2902 28.0109 17.5 30 17.5V14.5C27.2152 14.5 24.5445 15.6062 22.5754 17.5754L24.6967 19.6967ZM30 17.5C31.9891 17.5 33.8968 18.2902 35.3033 19.6967L37.4246 17.5754C35.4555 15.6062 32.7848 14.5 30 14.5V17.5ZM35.3033 19.6967C36.7098 21.1032 37.5 23.0109 37.5 25H40.5C40.5 22.2152 39.3938 19.5445 37.4246 17.5754L35.3033 19.6967ZM37.5 25V26H40.5V25H37.5ZM39 27.5C39.1326 27.5 39.2598 27.5527 39.3536 27.6464L41.4749 25.5251C40.8185 24.8687 39.9283 24.5 39 24.5V27.5ZM39.3536 27.6464C39.4473 27.7402 39.5 27.8674 39.5 28H42.5C42.5 27.0717 42.1313 26.1815 41.4749 25.5251L39.3536 27.6464ZM39.5 28C39.5 28.1326 39.4473 28.2598 39.3536 28.3536L41.4749 30.4749C42.1313 29.8185 42.5 28.9283 42.5 28H39.5ZM39.3536 28.3536C39.2598 28.4473 39.1326 28.5 39 28.5V31.5C39.9283 31.5 40.8185 31.1313 41.4749 30.4749L39.3536 28.3536ZM39 28.5H21V31.5H39V28.5ZM21 28.5C20.8674 28.5 20.7402 28.4473 20.6464 28.3536L18.5251 30.4749C19.1815 31.1313 20.0717 31.5 21 31.5V28.5ZM20.6464 28.3536C20.5527 28.2598 20.5 28.1326 20.5 28H17.5C17.5 28.9283 17.8687 29.8185 18.5251 30.4749L20.6464 28.3536ZM20.5 28C20.5 27.8674 20.5527 27.7402 20.6464 27.6464L18.5251 25.5251C17.8687 26.1815 17.5 27.0717 17.5 28H20.5ZM20.6464 27.6464C20.7402 27.5527 20.8674 27.5 21 27.5V24.5C20.0717 24.5 19.1815 24.8687 18.5251 25.5251L20.6464 27.6464ZM22.5 26V25H19.5V26H22.5ZM33.6598 39.1307L28.0161 29.2557L25.4114 30.7443L31.0552 40.6193L33.6598 39.1307ZM36.0162 35.0059L32.7312 29.2559L30.1263 30.7441L33.4113 36.4941L36.0162 35.0059Z" fill="white"/>
</svg>
