<svg width="66" height="65" viewBox="0 0 66 65" fill="none" xmlns="http://www.w3.org/2000/svg">
<path d="M33 0C26.5721 0 20.2886 1.90609 14.944 5.47724C9.59938 9.04838 5.43378 14.1242 2.97393 20.0628C0.514082 26.0014 -0.129527 32.5361 1.12449 38.8404C2.37851 45.1448 5.47384 50.9358 10.019 55.481C14.5643 60.0262 20.3552 63.1215 26.6596 64.3755C32.964 65.6295 39.4986 64.9859 45.4372 62.5261C51.3758 60.0662 56.4516 55.9006 60.0228 50.556C63.5939 45.2114 65.5 38.9279 65.5 32.5C65.4909 23.8833 62.0639 15.622 55.9709 9.52908C49.878 3.43612 41.6168 0.00909943 33 0ZM42.2688 34.2688L29.7688 46.7688C29.5365 47.001 29.2607 47.1853 28.9573 47.311C28.6538 47.4367 28.3285 47.5014 28 47.5014C27.6715 47.5014 27.3463 47.4367 27.0428 47.311C26.7393 47.1853 26.4635 47.001 26.2313 46.7688C25.999 46.5365 25.8147 46.2607 25.689 45.9572C25.5633 45.6538 25.4986 45.3285 25.4986 45C25.4986 44.6715 25.5633 44.3462 25.689 44.0428C25.8147 43.7393 25.999 43.4635 26.2313 43.2312L36.9656 32.5L26.2313 21.7688C25.7622 21.2997 25.4986 20.6634 25.4986 20C25.4986 19.3366 25.7622 18.7003 26.2313 18.2312C26.7004 17.7621 27.3366 17.4986 28 17.4986C28.6634 17.4986 29.2997 17.7621 29.7688 18.2312L42.2688 30.7312C42.5012 30.9634 42.6856 31.2392 42.8114 31.5426C42.9372 31.8461 43.002 32.1715 43.002 32.5C43.002 32.8285 42.9372 33.1539 42.8114 33.4574C42.6856 33.7608 42.5012 34.0366 42.2688 34.2688Z" fill="white"/>
</svg>
